# 3ds Max Wavefront OBJ Exporter v0.97b - (c)2007 guruware
# File Created: 07.05.2015 21:44:15

#mtllib Rock_1.mtl

#
# object Rock_1
#

v  -0.3812 0.3431 -1.1754
v  0.0762 0.3431 -1.3039
v  -0.5146 0.1906 -0.8910
v  -0.5527 0.7433 -0.9704
v  -0.3621 0.7624 -0.9380
v  0.2478 0.9911 -0.9925
v  0.2287 0.2643 -1.2198
v  -0.0191 0.1195 -0.7052
v  0.7624 0.5146 -0.6679
v  0.5337 0.1735 -0.8958
v  -0.3621 1.5438 -0.8921
v  0.4193 1.4295 -0.8884
v  -0.0381 0.0886 -0.4574
v  0.2287 -0.0432 -0.3240
v  0.8903 0.4955 -0.3431
v  -0.8767 1.0483 -0.7790
v  -0.7052 1.3342 -0.7146
v  -0.6256 1.8297 -0.5718
v  -1.0205 0.5718 -0.4384
v  -0.8196 0.0000 -0.5458
v  0.9297 0.8958 -0.4955
v  0.3431 1.7583 -0.6671
v  0.6861 1.7916 -0.3460
v  -0.2668 2.1139 -0.0762
v  -0.6861 -0.1168 -0.2668
v  0.4955 0.0817 0.0191
v  0.7052 0.2307 -0.1525
v  -1.0584 0.6861 -0.1525
v  -1.0307 1.5438 -0.3621
v  0.3621 1.9489 -0.4193
v  0.0572 -0.2687 -0.0381
v  -0.8193 0.1144 -0.0191
v  0.9303 0.9339 -0.3431
v  -0.3812 2.0891 -0.2287
v  -0.5908 -0.2743 -0.0762
v  1.1234 1.0483 -0.0191
v  1.0218 1.3151 0.0381
v  -1.1088 1.4295 0.0191
v  1.0589 0.3621 0.1334
v  -0.7316 0.2668 0.5146
v  1.2211 0.8386 0.3240
v  0.9413 1.9059 0.1525
v  0.3812 2.2263 0.0953
v  -0.2097 2.2180 0.1144
v  -0.4002 -0.4491 0.2478
v  -0.1334 -0.1642 0.4955
v  0.7433 0.3228 0.3621
v  -0.9911 1.6582 0.9516
v  -0.3812 2.0719 0.3240
v  -1.1964 1.4104 0.5337
v  1.0496 1.6200 0.3431
v  0.0000 1.9433 0.6480
v  0.4193 2.1346 0.3489
v  -0.5718 -0.1525 0.7223
v  -0.8490 0.3621 0.4765
v  -0.9689 0.5908 0.4574
v  0.8572 0.6861 0.4574
v  1.1813 1.0101 0.6480
v  -1.0400 0.9720 0.4193
v  0.4552 1.4866 0.7624
v  -0.6861 1.8590 0.8767
v  -0.0191 1.9081 0.8767
v  -0.6290 0.6290 0.9891
v  0.3643 0.3049 0.9148
v  -0.7243 0.9911 0.8990
v  0.9911 0.9911 0.8039
v  0.7243 0.8005 0.8401
v  -0.8872 1.1054 0.6861
v  -0.4765 -0.0054 0.9148
v  -0.9522 1.4485 0.9530
v  -0.4384 1.9115 0.8958
v  -0.0572 0.0572 0.9149
v  0.2287 1.2770 1.1935
v  -0.1334 1.6968 1.1054
v  0.0381 1.0292 1.0881
v  0.1334 0.7243 0.9822
v  -0.2668 1.2007 1.0083
v  -0.5908 1.3532 1.0306
v  -0.4765 1.7535 1.0569
# 79 vertices

vn -0.5384 -0.1560 -0.8281
vn -0.1231 -0.1406 -0.9824
vn -0.4139 -0.6581 -0.6290
vn -0.5998 0.0373 -0.7993
vn -0.2083 0.2807 -0.9369
vn 0.2918 0.1937 -0.9366
vn 0.5481 -0.3395 -0.7645
vn 0.0471 -0.9405 -0.3366
vn 0.7216 0.0493 -0.6905
vn 0.4619 -0.8287 -0.3160
vn -0.1154 0.4861 -0.8663
vn 0.6390 0.2956 -0.7102
vn 0.0172 -0.8889 -0.4578
vn 0.3381 -0.9037 -0.2626
vn 0.8707 -0.3623 -0.3326
vn -0.7709 0.0930 -0.6301
vn -0.4760 0.2675 -0.8378
vn -0.4898 0.7333 -0.4716
vn -0.8702 -0.2136 -0.4440
vn -0.8157 -0.4774 -0.3268
vn 0.7368 0.0603 -0.6734
vn 0.0749 0.7512 -0.6558
vn 0.5671 0.6488 -0.5074
vn -0.1707 0.8920 -0.4186
vn -0.1008 -0.9269 -0.3614
vn 0.5188 -0.8326 0.1938
vn 0.5930 -0.7910 -0.1507
vn -0.9808 -0.1862 -0.0585
vn -0.8878 0.2196 -0.4044
vn 0.1364 0.8412 -0.5233
vn 0.3495 -0.9111 -0.2184
vn -0.8965 -0.4154 0.1540
vn 0.8562 0.2708 -0.4401
vn -0.6339 0.7706 -0.0653
vn -0.5777 -0.7763 -0.2524
vn 0.9209 -0.0244 -0.3889
vn 0.8869 0.2549 -0.3852
vn -0.8206 0.5618 -0.1052
vn 0.8190 -0.5675 -0.0847
vn -0.8964 -0.3817 0.2254
vn 0.9347 -0.2212 0.2781
vn 0.8167 0.4915 -0.3024
vn 0.2595 0.9172 -0.3023
vn -0.1222 0.9514 0.2826
vn 0.0240 -0.9851 0.1705
vn 0.4454 -0.8125 0.3761
vn 0.5605 -0.6442 0.5204
vn -0.6499 0.7379 0.1820
vn -0.2191 0.9438 0.2473
vn -0.9767 -0.1174 0.1798
vn 0.6570 0.4894 0.5735
vn -0.0557 0.9308 0.3611
vn 0.3366 0.7160 0.6116
vn -0.7346 -0.5614 0.3809
vn -0.8413 -0.3450 0.4162
vn -0.9138 -0.2566 0.3148
vn 0.6472 -0.5562 0.5213
vn 0.9714 -0.0184 0.2368
vn -0.9031 -0.2809 0.3247
vn 0.4988 0.5277 0.6875
vn -0.4911 0.8660 0.0937
vn 0.3932 0.6613 0.6388
vn -0.5608 -0.1373 0.8165
vn 0.4708 -0.5618 0.6803
vn -0.5534 -0.1331 0.8222
vn 0.5482 0.2370 0.8021
vn 0.5388 -0.3698 0.7569
vn -0.7725 -0.3249 0.5456
vn -0.0060 -0.3265 0.9452
vn -0.6452 -0.3469 0.6807
vn -0.0525 0.8891 0.4547
vn 0.2919 -0.7906 0.5382
vn 0.3465 0.0920 0.9335
vn 0.1986 0.4043 0.8928
vn -0.1348 -0.1001 0.9858
vn 0.0214 -0.2235 0.9745
vn -0.1654 -0.1481 0.9750
vn -0.1458 -0.1378 0.9797
vn -0.1786 0.1013 0.9787
# 79 vertex normals

vt 0.2482 0.8358 0.0000
vt 0.1683 0.8426 0.0000
vt 0.2799 0.7858 0.0000
vt 0.4094 0.8651 0.0000
vt 0.4779 0.8229 0.0000
vt 0.4171 0.9435 0.0000
vt 0.4935 0.8533 0.0000
vt 0.5397 0.9516 0.0000
vt 0.4154 0.9751 0.0000
vt 0.2010 0.7419 0.0000
vt 0.1401 0.8199 0.0000
vt 0.5278 0.0895 0.0000
vt 0.4745 0.0337 0.0000
vt 0.3996 0.0514 0.0000
vt 0.3816 0.8118 0.0000
vt 0.6241 0.8424 0.0000
vt 0.3568 0.2971 0.0000
vt 0.4735 0.2428 0.0000
vt 0.4308 0.1761 0.0000
vt 0.2065 0.7026 0.0000
vt 0.0983 0.7526 0.0000
vt 0.1662 0.6607 0.0000
vt 0.5870 0.0817 0.0000
vt 0.5324 0.7644 0.0000
vt 0.5895 0.7772 0.0000
vt 0.6770 0.7434 0.0000
vt 0.6478 0.8240 0.0000
vt 0.4522 0.7055 0.0000
vt 0.3486 0.7263 0.0000
vt 0.5693 0.1485 0.0000
vt 0.4879 0.3068 0.0000
vt 0.5702 0.3080 0.0000
vt 0.7600 0.6678 0.0000
vt 0.7127 0.8249 0.0000
vt 0.8449 0.7933 0.0000
vt 0.3233 0.6741 0.0000
vt 0.1215 0.5954 0.0000
vt 0.0775 0.6239 0.0000
vt 0.6020 0.0211 0.0000
vt 0.4711 0.6593 0.0000
vt 0.6093 0.6921 0.0000
vt 0.9168 0.7484 0.0000
vt 0.8554 0.7413 0.0000
vt 0.2064 0.6122 0.0000
vt 0.3730 0.6365 0.0000
vt 0.5916 0.1558 0.0000
vt 0.7416 0.6875 0.0000
vt 0.3067 0.6365 0.0000
vt 0.6517 0.1736 0.0000
vt 0.6519 0.2221 0.0000
vt 0.5927 0.6307 0.0000
vt 0.0184 0.5710 0.0000
vt 0.6737 0.0583 0.0000
vt 0.3959 0.5425 0.0000
vt 0.7092 0.1400 0.0000
vt 0.6677 0.3264 0.0000
vt 0.8676 0.6456 0.0000
vt 0.7749 0.6372 0.0000
vt 0.2825 0.5815 0.0000
vt 0.2438 0.5205 0.0000
vt 0.0712 0.5323 0.0000
vt 0.6381 0.4777 0.0000
vt 0.7466 0.5981 0.0000
vt 0.9704 0.6622 0.0000
vt 0.5927 0.5503 0.0000
vt 0.6987 0.2725 0.0000
vt 0.8113 0.5414 0.0000
vt 0.8815 0.6025 0.0000
vt 0.3251 0.5062 0.0000
vt 0.4158 0.5514 0.0000
vt 0.7388 0.0279 0.0000
vt 0.4549 0.5578 0.0000
vt 0.7655 0.0937 0.0000
vt 0.7513 0.1727 0.0000
vt 0.5175 0.5631 0.0000
vt 0.8230 0.2858 0.0000
vt 0.7481 0.3962 0.0000
vt 0.6970 0.5000 0.0000
vt 0.8089 0.5044 0.0000
vt 0.4475 0.4570 0.0000
vt 0.7915 0.0324 0.0000
vt 0.8974 0.0737 0.0000
vt 0.5118 0.4649 0.0000
vt 0.7801 0.1728 0.0000
vt 0.8215 0.1425 0.0000
vt 0.5345 0.5085 0.0000
vt 0.9105 0.4750 0.0000
vt 0.3337 0.4687 0.0000
vt 0.1360 0.4409 0.0000
vt 0.5989 0.4748 0.0000
vt 0.7390 0.4990 0.0000
vt 0.2659 0.4404 0.0000
vt 0.2174 0.4449 0.0000
vt 0.9019 0.2437 0.0000
vt 0.7916 0.4515 0.0000
vt 0.3441 0.3201 0.0000
vt 0.3242 0.3989 0.0000
vt 0.4813 0.3364 0.0000
vt 0.4229 0.3367 0.0000
vt 0.9338 0.1503 0.0000
vt 0.9426 0.2094 0.0000
vt 0.5244 0.3802 0.0000
vt 0.5672 0.4229 0.0000
vt 0.6232 0.3841 0.0000
vt 0.9378 0.3272 0.0000
vt 0.7303 0.4628 0.0000
vt 0.5966 0.3314 0.0000
# 107 texture coords

g Rock_1
usemtl VoxMtl
s 1
f 1/1/1 2/2/2 3/3/3 
f 1/4/1 4/5/4 2/6/2 
f 5/7/5 6/8/6 2/6/2 
f 2/6/2 6/8/6 7/9/7 
f 8/10/8 3/3/3 2/2/2 
f 8/10/8 2/2/2 7/11/7 
f 9/12/9 10/13/10 7/14/7 
f 3/15/3 4/5/4 1/4/1 
f 2/6/2 4/5/4 5/7/5 
f 6/8/6 5/7/5 11/16/11 
f 11/17/11 12/18/12 6/19/6 
f 8/10/8 7/11/7 13/20/13 
f 10/21/10 13/20/13 7/11/7 
f 13/20/13 10/21/10 14/22/14 
f 9/12/9 15/23/15 10/13/10 
f 7/14/7 6/19/6 9/12/9 
f 16/24/16 5/7/5 4/5/4 
f 5/7/5 17/25/17 11/16/11 
f 18/26/18 11/27/11 17/25/17 
f 19/28/19 3/15/3 20/29/20 
f 4/5/4 19/28/19 16/24/16 
f 6/19/6 21/30/21 9/12/9 
f 21/30/21 6/19/6 12/18/12 
f 16/24/16 17/25/17 5/7/5 
f 22/31/22 23/32/23 12/18/12 
f 12/18/12 11/17/11 22/31/22 
f 24/33/24 11/34/11 18/26/18 
f 24/33/24 22/35/22 11/34/11 
f 20/29/20 3/3/3 25/36/25 
f 3/3/3 8/10/8 25/36/25 
f 26/37/26 14/22/14 27/38/27 
f 10/21/10 27/38/27 14/22/14 
f 15/23/15 27/39/27 10/13/10 
f 3/15/3 19/28/19 4/5/4 
f 9/12/9 21/30/21 15/23/15 
f 28/40/28 29/41/29 16/24/16 
f 19/28/19 28/40/28 16/24/16 
f 16/24/16 29/41/29 17/25/17 
f 18/26/18 17/25/17 29/41/29 
f 23/42/23 22/35/22 30/43/30 
f 30/43/30 22/35/22 24/33/24 
f 13/20/13 25/36/25 8/10/8 
f 14/22/14 31/44/31 13/20/13 
f 19/28/19 20/29/20 32/45/32 
f 21/30/21 33/46/33 15/23/15 
f 21/30/21 12/18/12 33/46/33 
f 24/33/24 18/26/18 34/47/34 
f 35/48/35 13/20/13 31/44/31 
f 14/22/14 26/37/26 31/44/31 
f 25/36/25 32/45/32 20/29/20 
f 32/45/32 28/40/28 19/28/19 
f 36/49/36 15/23/15 33/46/33 
f 33/46/33 37/50/37 36/49/36 
f 29/41/29 38/51/38 18/26/18 
f 18/26/18 38/51/38 34/47/34 
f 13/20/13 35/48/35 25/36/25 
f 25/36/25 35/48/35 32/45/32 
f 27/38/27 39/52/39 26/37/26 
f 27/39/27 15/23/15 39/53/39 
f 28/40/28 32/45/32 40/54/40 
f 36/49/36 41/55/41 39/53/39 
f 15/23/15 36/49/36 39/53/39 
f 29/41/29 28/40/28 38/51/38 
f 33/46/33 12/18/12 37/50/37 
f 37/50/37 12/18/12 42/56/42 
f 42/56/42 12/18/12 23/32/23 
f 43/57/43 24/33/24 44/58/44 
f 30/43/30 43/57/43 23/42/23 
f 35/48/35 31/44/31 45/59/45 
f 46/60/46 45/59/45 31/44/31 
f 46/60/46 31/44/31 26/37/26 
f 32/45/32 35/48/35 40/54/40 
f 26/37/26 39/52/39 47/61/47 
f 37/50/37 41/55/41 36/49/36 
f 34/47/34 48/62/48 24/33/24 
f 24/33/24 49/63/49 44/58/44 
f 24/33/24 43/57/43 30/43/30 
f 42/64/42 23/42/23 43/57/43 
f 50/65/50 38/51/38 28/40/28 
f 37/50/37 42/56/42 51/66/51 
f 52/67/52 44/58/44 49/63/49 
f 43/57/43 44/58/44 53/68/53 
f 43/57/43 53/68/53 42/64/42 
f 35/48/35 45/59/45 54/69/54 
f 54/69/54 40/54/40 35/48/35 
f 28/40/28 40/54/40 55/70/55 
f 39/53/39 41/55/41 47/71/47 
f 56/72/56 28/40/28 55/70/55 
f 47/71/47 41/55/41 57/73/57 
f 58/74/58 57/73/57 41/55/41 
f 59/75/59 28/40/28 56/72/56 
f 37/50/37 58/74/58 41/55/41 
f 50/65/50 28/40/28 59/75/59 
f 58/74/58 37/50/37 51/66/51 
f 48/62/48 38/51/38 50/65/50 
f 60/76/60 51/66/51 53/77/53 
f 61/78/61 24/33/24 48/62/48 
f 53/77/53 51/66/51 42/56/42 
f 44/58/44 52/67/52 53/68/53 
f 53/68/53 52/67/52 62/79/62 
f 54/69/54 45/59/45 46/60/46 
f 55/70/55 40/54/40 63/80/63 
f 47/81/47 57/73/57 64/82/64 
f 63/80/63 65/83/65 55/70/55 
f 58/74/58 66/84/66 57/73/57 
f 66/84/66 67/85/67 57/73/57 
f 56/72/56 68/86/68 59/75/59 
f 59/75/59 68/86/68 50/65/50 
f 58/74/58 51/66/51 66/84/66 
f 38/51/38 48/62/48 34/47/34 
f 51/66/51 60/76/60 66/84/66 
f 60/87/60 53/68/53 62/79/62 
f 49/63/49 24/33/24 61/78/61 
f 69/88/69 54/69/54 46/60/46 
f 26/37/26 64/89/64 46/60/46 
f 63/80/63 40/54/40 54/69/54 
f 69/88/69 63/80/63 54/69/54 
f 26/37/26 47/61/47 64/89/64 
f 68/86/68 56/72/56 55/70/55 
f 65/83/65 68/86/68 55/70/55 
f 70/90/70 50/65/50 68/86/68 
f 49/63/49 71/91/71 52/67/52 
f 72/92/72 69/88/69 46/60/46 
f 64/89/64 72/93/72 46/60/46 
f 64/82/64 57/73/57 67/85/67 
f 67/85/67 66/84/66 73/94/73 
f 68/86/68 65/83/65 70/90/70 
f 66/84/66 60/76/60 73/94/73 
f 50/65/50 70/90/70 48/62/48 
f 60/87/60 62/79/62 74/95/74 
f 61/78/61 71/91/71 49/63/49 
f 71/91/71 62/79/62 52/67/52 
f 64/96/64 69/88/69 72/97/72 
f 69/88/69 75/98/75 63/80/63 
f 76/99/76 75/98/75 69/88/69 
f 64/96/64 76/99/76 69/88/69 
f 75/98/75 65/83/65 63/80/63 
f 76/100/76 73/94/73 75/101/75 
f 76/100/76 64/82/64 73/94/73 
f 77/102/77 65/83/65 75/98/75 
f 64/82/64 67/85/67 73/94/73 
f 77/102/77 78/103/78 65/83/65 
f 79/104/79 77/102/77 75/98/75 
f 73/94/73 60/76/60 74/105/74 
f 65/83/65 78/103/78 70/90/70 
f 77/102/77 79/104/79 78/103/78 
f 70/90/70 78/103/78 48/62/48 
f 61/78/61 48/62/48 71/91/71 
f 79/104/79 48/62/48 78/103/78 
f 48/62/48 79/106/79 71/91/71 
f 74/95/74 62/79/62 71/91/71 
f 74/107/74 79/104/79 75/98/75 
f 73/94/73 74/105/74 75/101/75 
f 74/95/74 71/91/71 79/106/79 
# 154 faces

